<svg width="20" height="20" viewBox="0 0 20 20" fill="none" xmlns="http://www.w3.org/2000/svg">
<path d="M9.6875 0.3125C4.33594 0.3125 0 4.64844 0 10C0 15.3516 4.33594 19.6875 9.6875 19.6875C15.0391 19.6875 19.375 15.3516 19.375 10C19.375 4.64844 15.0391 0.3125 9.6875 0.3125ZM9.6875 4.0625C11.5859 4.0625 13.125 5.60156 13.125 7.5C13.125 9.39844 11.5859 10.9375 9.6875 10.9375C7.78906 10.9375 6.25 9.39844 6.25 7.5C6.25 5.60156 7.78906 4.0625 9.6875 4.0625ZM9.6875 17.5C7.39453 17.5 5.33984 16.4609 3.96484 14.8359C4.69922 13.4531 6.13672 12.5 7.8125 12.5C7.90625 12.5 8 12.5156 8.08984 12.543C8.59766 12.707 9.12891 12.8125 9.6875 12.8125C10.2461 12.8125 10.7812 12.707 11.2852 12.543C11.375 12.5156 11.4688 12.5 11.5625 12.5C13.2383 12.5 14.6758 13.4531 15.4102 14.8359C14.0352 16.4609 11.9805 17.5 9.6875 17.5Z" fill="#1B95E0"/>
</svg>
