<svg width="20" height="18" viewBox="0 0 20 18" fill="none" xmlns="http://www.w3.org/2000/svg">
  <path d="M17.9063 1.51172C15.6484 -0.386717 12.1602 -0.101561 10 2.09766C7.83985 -0.101561 4.35157 -0.390623 2.09375 1.51172C-0.843745 3.98438 -0.414058 8.01563 1.67969 10.1523L8.53125 17.1328C8.92188 17.5313 9.44532 17.7539 10 17.7539C10.5586 17.7539 11.0781 17.5352 11.4688 17.1367L18.3203 10.1563C20.4102 8.01953 20.8477 3.98828 17.9063 1.51172ZM16.9844 8.83594L10.1328 15.8164C10.0391 15.9102 9.96094 15.9102 9.86719 15.8164L3.01563 8.83594C1.58985 7.38281 1.30079 4.63281 3.30079 2.94922C4.82032 1.67188 7.16407 1.86328 8.63282 3.35938L10 4.75391L11.3672 3.35938C12.8438 1.85547 15.1875 1.67188 16.6992 2.94531C18.6953 4.62891 18.3984 7.39453 16.9844 8.83594Z" fill="red"/>
</svg>