<svg width="19" height="20" viewBox="0 0 19 20" fill="none" xmlns="http://www.w3.org/2000/svg">
<path d="M6.53125 11.25H4.96875C4.71094 11.25 4.5 11.0391 4.5 10.7812V9.21875C4.5 8.96094 4.71094 8.75 4.96875 8.75H6.53125C6.78906 8.75 7 8.96094 7 9.21875V10.7812C7 11.0391 6.78906 11.25 6.53125 11.25ZM10.75 10.7812V9.21875C10.75 8.96094 10.5391 8.75 10.2812 8.75H8.71875C8.46094 8.75 8.25 8.96094 8.25 9.21875V10.7812C8.25 11.0391 8.46094 11.25 8.71875 11.25H10.2812C10.5391 11.25 10.75 11.0391 10.75 10.7812ZM14.5 10.7812V9.21875C14.5 8.96094 14.2891 8.75 14.0312 8.75H12.4688C12.2109 8.75 12 8.96094 12 9.21875V10.7812C12 11.0391 12.2109 11.25 12.4688 11.25H14.0312C14.2891 11.25 14.5 11.0391 14.5 10.7812ZM10.75 14.5312V12.9688C10.75 12.7109 10.5391 12.5 10.2812 12.5H8.71875C8.46094 12.5 8.25 12.7109 8.25 12.9688V14.5312C8.25 14.7891 8.46094 15 8.71875 15H10.2812C10.5391 15 10.75 14.7891 10.75 14.5312ZM7 14.5312V12.9688C7 12.7109 6.78906 12.5 6.53125 12.5H4.96875C4.71094 12.5 4.5 12.7109 4.5 12.9688V14.5312C4.5 14.7891 4.71094 15 4.96875 15H6.53125C6.78906 15 7 14.7891 7 14.5312ZM14.5 14.5312V12.9688C14.5 12.7109 14.2891 12.5 14.0312 12.5H12.4688C12.2109 12.5 12 12.7109 12 12.9688V14.5312C12 14.7891 12.2109 15 12.4688 15H14.0312C14.2891 15 14.5 14.7891 14.5 14.5312ZM18.25 4.375V18.125C18.25 19.1602 17.4102 20 16.375 20H2.625C1.58984 20 0.75 19.1602 0.75 18.125V4.375C0.75 3.33984 1.58984 2.5 2.625 2.5H4.5V0.46875C4.5 0.210938 4.71094 0 4.96875 0H6.53125C6.78906 0 7 0.210938 7 0.46875V2.5H12V0.46875C12 0.210938 12.2109 0 12.4688 0H14.0312C14.2891 0 14.5 0.210938 14.5 0.46875V2.5H16.375C17.4102 2.5 18.25 3.33984 18.25 4.375ZM16.375 17.8906V6.25H2.625V17.8906C2.625 18.0195 2.73047 18.125 2.85938 18.125H16.1406C16.2695 18.125 16.375 18.0195 16.375 17.8906Z" fill="#5B7083"/>
</svg>
